<svg width="180" height="71" viewBox="0 0 180 71" fill="none" xmlns="http://www.w3.org/2000/svg">
<path d="M50.8325 31.9773H45.3276V22.3603H37.1728V31.9773H31.6364V8.94718H37.1728V18.0896H45.3276V8.94718H50.8325V31.9773Z" fill="black"/>
<path d="M53.435 23.2619C53.435 21.5536 53.7663 20.0352 54.4288 18.7065C55.0912 17.3673 56.0429 16.3392 57.2837 15.6221C58.5246 14.9051 59.981 14.5465 61.6529 14.5465C64.2082 14.5465 66.2219 15.3427 67.6941 16.935C69.1663 18.5167 69.9024 20.6731 69.9024 23.4043V23.5941C69.9024 26.262 69.161 28.3815 67.6783 29.9527C66.2062 31.5133 64.2082 32.2937 61.6845 32.2937C59.2554 32.2937 57.3048 31.5661 55.8326 30.1109C54.3604 28.6451 53.5665 26.6627 53.4508 24.1635L53.435 23.2619ZM58.7507 23.5941C58.7507 25.1758 58.9978 26.3358 59.492 27.0739C59.9862 27.8121 60.7171 28.1811 61.6845 28.1811C63.5773 28.1811 64.5447 26.7207 64.5868 23.7997V23.2619C64.5868 20.1934 63.6088 18.6591 61.6529 18.6591C59.8758 18.6591 58.9136 19.9825 58.7664 22.6292L58.7507 23.5941Z" fill="black"/>
<path d="M82.5683 19.6872L80.8175 19.5607C79.1455 19.5607 78.0729 20.0879 77.5997 21.1424V31.9773H72.2841V14.8629H77.2685L77.442 17.0615C78.3358 15.3849 79.5819 14.5465 81.1803 14.5465C81.7481 14.5465 82.2423 14.6098 82.663 14.7364L82.5683 19.6872Z" fill="black"/>
<path d="M90.0922 31.9773H84.7608V14.8629H90.0922V31.9773ZM84.4454 10.4498C84.4454 9.6906 84.7188 9.06845 85.2656 8.58338C85.8124 8.09832 86.5222 7.85578 87.395 7.85578C88.2677 7.85578 88.9775 8.09832 89.5244 8.58338C90.0712 9.06845 90.3446 9.6906 90.3446 10.4498C90.3446 11.2091 90.0712 11.8312 89.5244 12.3163C88.9775 12.8014 88.2677 13.0439 87.395 13.0439C86.5222 13.0439 85.8124 12.8014 85.2656 12.3163C84.7188 11.8312 84.4454 11.2091 84.4454 10.4498Z" fill="black"/>
<path d="M99.6508 27.8648H107.427V31.9773H92.9314V29.0036L100.503 18.9754H93.2626V14.8629H107.254V17.7417L99.6508 27.8648Z" fill="black"/>
<path d="M109.083 23.2619C109.083 21.5536 109.414 20.0352 110.077 18.7065C110.739 17.3673 111.691 16.3392 112.932 15.6221C114.173 14.9051 115.629 14.5465 117.301 14.5465C119.856 14.5465 121.87 15.3427 123.342 16.935C124.814 18.5167 125.551 20.6731 125.551 23.4043V23.5941C125.551 26.262 124.809 28.3815 123.327 29.9527C121.854 31.5133 119.856 32.2937 117.333 32.2937C114.904 32.2937 112.953 31.5661 111.481 30.1109C110.009 28.6451 109.215 26.6627 109.099 24.1635L109.083 23.2619ZM114.399 23.5941C114.399 25.1758 114.646 26.3358 115.14 27.0739C115.634 27.8121 116.365 28.1811 117.333 28.1811C119.225 28.1811 120.193 26.7207 120.235 23.7997V23.2619C120.235 20.1934 119.257 18.6591 117.301 18.6591C115.524 18.6591 114.562 19.9825 114.415 22.6292L114.399 23.5941Z" fill="black"/>
<path d="M132.775 14.8629L132.948 16.8717C134.126 15.3216 135.751 14.5465 137.822 14.5465C139.599 14.5465 140.924 15.0791 141.797 16.1441C142.68 17.2091 143.138 18.812 143.169 20.9526V31.9773H137.838V21.174C137.838 20.3093 137.664 19.6766 137.317 19.2759C136.97 18.8647 136.34 18.6591 135.425 18.6591C134.384 18.6591 133.611 19.0703 133.106 19.8928V31.9773H127.79V14.8629H132.775Z" fill="black"/>
<path d="M152.318 10.608V14.8629H155.125V18.5642H152.318V26.3938C152.318 27.037 152.434 27.4852 152.665 27.7382C152.896 27.9913 153.354 28.1179 154.037 28.1179C154.563 28.1179 155.005 28.0862 155.362 28.023V31.835C154.405 32.1408 153.406 32.2937 152.365 32.2937C150.535 32.2937 149.184 31.8613 148.311 30.9966C147.439 30.1319 147.002 28.8191 147.002 27.0581V18.5642H144.826V14.8629H147.002V10.608H152.318Z" fill="black"/>
<path d="M166.845 31.9773C166.656 31.6293 166.488 31.1179 166.34 30.443C165.362 31.6768 163.995 32.2937 162.239 32.2937C160.63 32.2937 159.263 31.8086 158.138 30.8385C157.013 29.8578 156.45 28.6293 156.45 27.153C156.45 25.2971 157.134 23.8946 158.501 22.9456C159.868 21.9965 161.855 21.522 164.463 21.522H166.104V20.6204C166.104 19.0492 165.425 18.2636 164.069 18.2636C162.807 18.2636 162.176 18.8858 162.176 20.1301H156.861C156.861 18.4745 157.56 17.13 158.958 16.0966C160.367 15.0632 162.16 14.5465 164.337 14.5465C166.514 14.5465 168.233 15.0791 169.495 16.1441C170.757 17.2091 171.404 18.6696 171.435 20.5255V28.102C171.456 29.6732 171.698 30.8754 172.161 31.7084V31.9773H166.845ZM163.517 28.4975C164.179 28.4975 164.726 28.3551 165.157 28.0704C165.599 27.7857 165.914 27.4641 166.104 27.1056V24.3691H164.558C162.707 24.3691 161.782 25.2022 161.782 26.8683C161.782 27.3534 161.945 27.7488 162.271 28.0546C162.597 28.3499 163.012 28.4975 163.517 28.4975Z" fill="black"/>
<path d="M180 31.9773H174.669V7.68179H180V31.9773Z" fill="black"/>
<path d="M31.6364 63.1254V40.0953H39.8858C42.8407 40.0953 45.0857 40.6383 46.621 41.7245C48.1668 42.8106 48.9397 44.3871 48.9397 46.4539C48.9397 47.6455 48.6663 48.663 48.1194 49.5066C47.5726 50.3502 46.7682 50.9724 45.7061 51.3731C46.9049 51.6894 47.825 52.2799 48.4665 53.1446C49.1079 54.0093 49.4286 55.0638 49.4286 56.3081C49.4286 58.5647 48.7136 60.2625 47.2835 61.4013C45.8639 62.5296 43.7555 63.1043 40.9584 63.1254H31.6364ZM37.1728 53.3344V58.8547H40.8006C41.7996 58.8547 42.5672 58.628 43.1035 58.1746C43.6398 57.7106 43.908 57.0621 43.908 56.229C43.908 54.3098 42.9563 53.345 41.053 53.3344H37.1728ZM37.1728 49.6964H40.0593C41.2686 49.6859 42.1309 49.4645 42.6461 49.0321C43.1614 48.5998 43.419 47.9618 43.419 47.1182C43.419 46.1481 43.1403 45.4521 42.583 45.0303C42.0257 44.598 41.1266 44.3818 39.8858 44.3818H37.1728V49.6964Z" fill="black"/>
<path d="M62.4101 61.2748C61.2849 62.7194 59.7654 63.4418 57.8516 63.4418C55.9798 63.4418 54.5602 62.8987 53.5928 61.8126C52.6359 60.7159 52.1574 59.1447 52.1574 57.099V46.011H57.473V57.1306C57.473 58.5964 58.1828 59.3292 59.6024 59.3292C60.8222 59.3292 61.6897 58.8916 62.205 58.0164V46.011H67.5522V63.1254H62.5678L62.4101 61.2748Z" fill="black"/>
<path d="M76.0855 63.1254H70.7541V46.011H76.0855V63.1254ZM70.4387 41.5979C70.4387 40.8387 70.7121 40.2165 71.2589 39.7315C71.8057 39.2464 72.5155 39.0039 73.3883 39.0039C74.2611 39.0039 74.9709 39.2464 75.5177 39.7315C76.0645 40.2165 76.3379 40.8387 76.3379 41.5979C76.3379 42.3572 76.0645 42.9793 75.5177 43.4644C74.9709 43.9495 74.2611 44.192 73.3883 44.192C72.5155 44.192 71.8057 43.9495 71.2589 43.4644C70.7121 42.9793 70.4387 42.3572 70.4387 41.5979Z" fill="black"/>
<path d="M84.9816 63.1254H79.6503V38.8299H84.9816V63.1254Z" fill="black"/>
<path d="M87.6 54.4417C87.6 51.7316 88.1836 49.5963 89.3508 48.0356C90.5181 46.475 92.148 45.6946 94.2406 45.6946C95.7653 45.6946 97.0482 46.2957 98.0893 47.4978V38.8299H103.421V63.1254H98.6413L98.3732 61.2906C97.2796 62.7247 95.8915 63.4418 94.209 63.4418C92.1795 63.4418 90.5706 62.6614 89.3824 61.1008C88.1941 59.5401 87.6 57.3204 87.6 54.4417ZM92.9156 54.7738C92.9156 57.8108 93.7989 59.3292 95.5655 59.3292C96.7433 59.3292 97.5845 58.8336 98.0893 57.8424V51.3256C97.6055 50.3133 96.7748 49.8072 95.5971 49.8072C93.9566 49.8072 93.0681 51.1358 92.9314 53.7931L92.9156 54.7738Z" fill="black"/>
<path d="M112.049 63.1254H106.717V46.011H112.049V63.1254ZM106.402 41.5979C106.402 40.8387 106.675 40.2165 107.222 39.7315C107.769 39.2464 108.479 39.0039 109.351 39.0039C110.224 39.0039 110.934 39.2464 111.481 39.7315C112.028 40.2165 112.301 40.8387 112.301 41.5979C112.301 42.3572 112.028 42.9793 111.481 43.4644C110.934 43.9495 110.224 44.192 109.351 44.192C108.479 44.192 107.769 43.9495 107.222 43.4644C106.675 42.9793 106.402 42.3572 106.402 41.5979Z" fill="black"/>
<path d="M120.219 46.011L120.393 48.0198C121.57 46.4697 123.195 45.6946 125.267 45.6946C127.044 45.6946 128.369 46.2272 129.242 47.2922C130.125 48.3572 130.582 49.9601 130.614 52.1007V63.1254H125.282V52.3221C125.282 51.4574 125.109 50.8247 124.762 50.424C124.415 50.0128 123.784 49.8072 122.869 49.8072C121.828 49.8072 121.055 50.2184 120.55 51.0409V63.1254H115.235V46.011H120.219Z" fill="black"/>
<path d="M132.948 54.4417C132.948 52.7123 133.232 51.1833 133.8 49.8546C134.368 48.526 135.183 47.5031 136.245 46.786C137.307 46.0584 138.543 45.6946 139.952 45.6946C141.729 45.6946 143.117 46.2957 144.116 47.4978L144.305 46.011H149.132V62.4769C149.132 63.9848 148.779 65.2924 148.075 66.3996C147.381 67.5174 146.371 68.3715 145.046 68.962C143.721 69.5631 142.186 69.8636 140.441 69.8636C139.189 69.8636 137.975 69.6264 136.797 69.1518C135.63 68.6773 134.736 68.0604 134.115 67.3012L136.34 64.1694C137.328 65.3398 138.632 65.9251 140.251 65.9251C142.607 65.9251 143.784 64.7124 143.784 62.2871V61.7493C142.764 62.8776 141.476 63.4418 139.92 63.4418C137.838 63.4418 136.155 62.6456 134.873 61.0533C133.59 59.4505 132.948 57.3099 132.948 54.6315V54.4417ZM138.28 54.7738C138.28 56.1763 138.543 57.2888 139.068 58.1113C139.594 58.9233 140.33 59.3292 141.277 59.3292C142.423 59.3292 143.259 58.9443 143.784 58.1746V50.9776C143.269 50.1973 142.444 49.8072 141.308 49.8072C140.362 49.8072 139.62 50.2342 139.084 51.0884C138.548 51.932 138.28 53.1604 138.28 54.7738Z" fill="black"/>
<path d="M161.088 58.3169C161.088 57.8635 160.851 57.4997 160.378 57.2255C159.905 56.9514 159.006 56.6666 157.681 56.3714C156.356 56.0761 155.262 55.6912 154.4 55.2167C153.538 54.7316 152.88 54.1464 152.428 53.461C151.976 52.7756 151.75 51.99 151.75 51.1042C151.75 49.533 152.397 48.2412 153.69 47.2289C154.984 46.2061 156.677 45.6946 158.769 45.6946C161.019 45.6946 162.828 46.2061 164.195 47.2289C165.562 48.2518 166.246 49.5963 166.246 51.2624H160.914C160.914 49.8915 160.194 49.2061 158.753 49.2061C158.196 49.2061 157.728 49.3643 157.35 49.6806C156.971 49.9864 156.782 50.3713 156.782 50.8353C156.782 51.3098 157.013 51.6947 157.476 51.99C157.938 52.2852 158.674 52.5278 159.684 52.7176C160.704 52.9074 161.598 53.1341 162.365 53.3977C164.931 54.2835 166.214 55.8705 166.214 58.1587C166.214 59.7194 165.52 60.9901 164.132 61.9707C162.755 62.9514 160.967 63.4418 158.769 63.4418C157.307 63.4418 156.004 63.1781 154.857 62.6509C153.711 62.1236 152.817 61.4066 152.176 60.4997C151.534 59.5929 151.214 58.6385 151.214 57.6368H156.182C156.203 58.4276 156.466 59.0076 156.971 59.3767C157.476 59.7352 158.122 59.9145 158.911 59.9145C159.637 59.9145 160.178 59.7668 160.536 59.4716C160.904 59.1763 161.088 58.7914 161.088 58.3169Z" fill="black"/>
<path d="M172.003 57.9531C172.844 57.9531 173.543 58.2062 174.101 58.7124C174.658 59.208 174.937 59.8459 174.937 60.6263C174.937 61.4066 174.658 62.0498 174.101 62.556C173.543 63.0516 172.844 63.2994 172.003 63.2994C171.151 63.2994 170.447 63.0463 169.889 62.5402C169.342 62.034 169.069 61.396 169.069 60.6263C169.069 59.8565 169.342 59.2185 169.889 58.7124C170.447 58.2062 171.151 57.9531 172.003 57.9531Z" fill="black"/>
<path d="M12 0.0454407L12 70.9545L-2.38512e-07 70.9545L2.86102e-06 0.0454401L12 0.0454407Z" fill="black"/>
</svg>
